<?xml version="1.0" encoding="utf-8"?>
<!-- Generator: Adobe Illustrator 16.0.0, SVG Export Plug-In . SVG Version: 6.00 Build 0)  -->
<!DOCTYPE svg PUBLIC "-//W3C//DTD SVG 1.1//EN" "http://www.w3.org/Graphics/SVG/1.1/DTD/svg11.dtd">
<svg version="1.1" id="Layer_1" xmlns="http://www.w3.org/2000/svg" xmlns:xlink="http://www.w3.org/1999/xlink" x="0px" y="0px"
	 width="288px" height="42px" viewBox="0 0 288 42" enable-background="new 0 0 288 42" xml:space="preserve">
<g>
	<polygon points="29.049,6.396 30.571,0.717 12.489,0.717 10.936,6.512 22.469,6.512 2.562,35.604 1.04,41.283 19.701,41.283 
		21.254,35.488 9.142,35.488 	"/>
	<polygon points="47.958,0.717 43.299,18.103 36.055,18.103 40.713,0.717 34.338,0.717 23.469,41.283 29.844,41.283 34.502,23.898 
		41.746,23.898 37.088,41.283 43.578,41.283 54.448,0.717 	"/>
	<path d="M63.894,0.717l-17.36,40.566h5.853l3.073-7.359h7.823l-0.87,7.359h6.433l4.379-40.566H63.894z M63.89,28.418h-6.143
		l8.568-20.516L63.89,28.418z"/>
	<path d="M92.006,21.464c3.197-1.333,5.26-4.057,6.378-8.229l0.854-3.188c1.677-6.259-0.34-9.33-6.946-9.33h-9.62l-10.87,40.566
		h6.375l4.425-16.518h2.202c2.897,0,3.799,1.393,2.79,5.158l-1.708,6.375c-0.885,3.305-0.823,3.941-0.755,4.984h6.49
		c-0.233-1.506,0.096-2.955,0.624-4.926l1.677-6.258C95.056,25.869,94.836,22.797,92.006,21.464z M86.646,18.973h-2.491
		l3.339-12.461h3.071c2.26,0,2.903,1.275,2.127,4.173l-1.071,3.998C90.751,17.929,89.022,18.973,86.646,18.973z"/>
	<polygon points="105.969,0.717 95.1,41.283 101.475,41.283 112.344,0.717 	"/>
	<polygon points="118.525,18.74 121.802,6.512 132.292,6.512 133.844,0.717 116.98,0.717 106.11,41.283 112.485,41.283 
		116.973,24.535 125.201,24.535 126.754,18.74 	"/>
	<polygon points="152.228,6.512 153.78,0.717 136.916,0.717 126.046,41.283 132.421,41.283 136.908,24.535 145.137,24.535 
		146.689,18.74 138.461,18.74 141.737,6.512 	"/>
	<path d="M170.646,0.717l-17.36,40.566h5.854l3.072-7.359h7.823l-0.87,7.359h6.433l4.379-40.566H170.646z M170.641,28.418h-6.143
		l8.568-20.516L170.641,28.418z"/>
	<polygon points="199.196,18.74 190.968,18.74 194.245,6.512 204.733,6.512 206.286,0.717 189.423,0.717 178.553,41.283 
		184.928,41.283 189.415,24.535 197.644,24.535 	"/>
	<path d="M213.415,0.717l-17.359,40.566h5.853l3.073-7.359h7.823l-0.87,7.359h6.433l4.38-40.566H213.415z M213.411,28.418h-6.143
		l8.568-20.516L213.411,28.418z"/>
	<polygon points="246.683,0.717 240.176,24.998 240.134,0.717 232.136,0.717 221.266,41.283 227.003,41.283 234.876,11.901 
		234.943,41.283 241.491,41.283 252.36,0.717 	"/>
	<path d="M267.024,0.717H256.94l-10.87,40.566h10.084c6.374,0,10.451-3.535,12.19-10.025l5.497-20.516
		C275.581,4.251,273.397,0.717,267.024,0.717z M267.544,10.452l-5.652,21.097c-0.776,2.896-2.272,3.939-4.301,3.939h-3.593
		l7.765-28.977h3.592C267.384,6.512,268.32,7.555,267.544,10.452z"/>
	<polygon points="280.585,0.717 269.715,41.283 276.09,41.283 286.96,0.717 	"/>
</g>
</svg>
